<svg xmlns="http://www.w3.org/2000/svg" style="display:none" aria-hidden="true">
  <!--
    Gilded Noir navigation sprite.
    Symbol ids match the platform navigation item "key" values supplied by @navigation,
    so base.html can resolve an icon without maintaining a second route list.
    Purely decorative: every navigation destination also carries its text label.
  -->
  <defs>
    <style>
      symbol { fill: none; stroke: currentColor; stroke-width: 1.5; stroke-linecap: round; stroke-linejoin: round; }
    </style>
  </defs>

  <symbol fill="none" stroke="currentColor" stroke-width="1.9" stroke-linecap="round" stroke-linejoin="round" id="nav-home" viewBox="0 0 24 24"><path d="M4 10.5 12 4l8 6.5V19a1 1 0 0 1-1 1h-4v-6H9v6H5a1 1 0 0 1-1-1z"/></symbol>
  <symbol fill="none" stroke="currentColor" stroke-width="1.9" stroke-linecap="round" stroke-linejoin="round" id="nav-catalogue" viewBox="0 0 24 24"><rect x="3.5" y="4.5" width="7" height="7" rx="1.2"/><rect x="13.5" y="4.5" width="7" height="7" rx="1.2"/><rect x="3.5" y="14.5" width="7" height="5" rx="1.2"/><rect x="13.5" y="14.5" width="7" height="5" rx="1.2"/></symbol>
  <symbol fill="none" stroke="currentColor" stroke-width="1.9" stroke-linecap="round" stroke-linejoin="round" id="nav-help" viewBox="0 0 24 24"><circle cx="12" cy="12" r="8.2"/><path d="M9.6 9.4a2.5 2.5 0 0 1 4.8.9c0 1.7-2.4 2-2.4 3.5"/><path d="M12 17.1h.01"/></symbol>
  <symbol fill="none" stroke="currentColor" stroke-width="1.9" stroke-linecap="round" stroke-linejoin="round" id="nav-contact" viewBox="0 0 24 24"><rect x="3" y="5.5" width="18" height="13" rx="1.6"/><path d="m3.8 6.6 8.2 6 8.2-6"/></symbol>
  <symbol fill="none" stroke="currentColor" stroke-width="1.9" stroke-linecap="round" stroke-linejoin="round" id="nav-company" viewBox="0 0 24 24"><path d="M4 20V6.2a1 1 0 0 1 .7-1l7-2.1a1 1 0 0 1 1.3 1V20"/><path d="M13 9.6h6.3a1 1 0 0 1 1 1V20"/><path d="M2.6 20h18.8"/><path d="M7 8h2.6M7 11.5h2.6M7 15h2.6M16 13h1.4"/></symbol>
  <symbol fill="none" stroke="currentColor" stroke-width="1.9" stroke-linecap="round" stroke-linejoin="round" id="nav-administration" viewBox="0 0 24 24"><circle cx="12" cy="12" r="2.9"/><path d="M19.3 14.1a1.6 1.6 0 0 0 .32 1.76l.06.06a1.9 1.9 0 1 1-2.7 2.7l-.06-.06a1.6 1.6 0 0 0-1.76-.32 1.6 1.6 0 0 0-.97 1.46V20a1.9 1.9 0 1 1-3.8 0v-.1a1.6 1.6 0 0 0-1.04-1.46 1.6 1.6 0 0 0-1.76.32l-.06.06a1.9 1.9 0 1 1-2.7-2.7l.06-.06a1.6 1.6 0 0 0 .32-1.76 1.6 1.6 0 0 0-1.46-.97H4a1.9 1.9 0 1 1 0-3.8h.1a1.6 1.6 0 0 0 1.46-1.04 1.6 1.6 0 0 0-.32-1.76l-.06-.06a1.9 1.9 0 1 1 2.7-2.7l.06.06a1.6 1.6 0 0 0 1.76.32H9.8a1.6 1.6 0 0 0 .97-1.46V4a1.9 1.9 0 1 1 3.8 0v.1a1.6 1.6 0 0 0 .97 1.46 1.6 1.6 0 0 0 1.76-.32l.06-.06a1.9 1.9 0 1 1 2.7 2.7l-.06.06a1.6 1.6 0 0 0-.32 1.76v.08a1.6 1.6 0 0 0 1.46.97H20a1.9 1.9 0 1 1 0 3.8h-.1a1.6 1.6 0 0 0-1.46.97z"/></symbol>
  <symbol fill="none" stroke="currentColor" stroke-width="1.9" stroke-linecap="round" stroke-linejoin="round" id="nav-account" viewBox="0 0 24 24"><circle cx="12" cy="8.4" r="3.6"/><path d="M4.8 20a7.4 7.4 0 0 1 14.4 0"/></symbol>
  <symbol fill="none" stroke="currentColor" stroke-width="1.9" stroke-linecap="round" stroke-linejoin="round" id="nav-signin" viewBox="0 0 24 24"><path d="M14.4 3.5h3.7a1.9 1.9 0 0 1 1.9 1.9v13.2a1.9 1.9 0 0 1-1.9 1.9h-3.7"/><path d="M9.6 16.2 13.8 12 9.6 7.8"/><path d="M13.8 12H3.9"/></symbol>
  <symbol fill="none" stroke="currentColor" stroke-width="1.9" stroke-linecap="round" stroke-linejoin="round" id="nav-signout" viewBox="0 0 24 24"><path d="M9.6 3.5H5.9A1.9 1.9 0 0 0 4 5.4v13.2a1.9 1.9 0 0 0 1.9 1.9h3.7"/><path d="m15.8 16.2 4.2-4.2-4.2-4.2"/><path d="M20 12h-9.9"/></symbol>

  <symbol fill="none" stroke="currentColor" stroke-width="1.9" stroke-linecap="round" stroke-linejoin="round" id="nav-admin-dashboard" viewBox="0 0 24 24"><rect x="3.5" y="4" width="17" height="16" rx="1.8"/><path d="M3.5 9.4h17M9.4 9.4V20"/></symbol>
  <symbol fill="none" stroke="currentColor" stroke-width="1.9" stroke-linecap="round" stroke-linejoin="round" id="nav-admin-courses" viewBox="0 0 24 24"><path d="M4 5.4A1.4 1.4 0 0 1 5.4 4H10a2.6 2.6 0 0 1 2 1v14a2.6 2.6 0 0 0-2-1H5.4A1.4 1.4 0 0 1 4 16.6z"/><path d="M20 5.4A1.4 1.4 0 0 0 18.6 4H14a2.6 2.6 0 0 0-2 1v14a2.6 2.6 0 0 1 2-1h4.6a1.4 1.4 0 0 0 1.4-1.4z"/></symbol>
  <symbol fill="none" stroke="currentColor" stroke-width="1.9" stroke-linecap="round" stroke-linejoin="round" id="nav-admin-people" viewBox="0 0 24 24"><circle cx="9.4" cy="8.2" r="3.2"/><path d="M3.4 19.4a6.2 6.2 0 0 1 12 0"/><path d="M16 5.4a3.2 3.2 0 0 1 0 6"/><path d="M17.6 13.6a5.6 5.6 0 0 1 3 5.1"/></symbol>
  <symbol fill="none" stroke="currentColor" stroke-width="1.9" stroke-linecap="round" stroke-linejoin="round" id="nav-admin-companies" viewBox="0 0 24 24"><path d="M4 20V6.2a1 1 0 0 1 .7-1l7-2.1a1 1 0 0 1 1.3 1V20"/><path d="M13 9.6h6.3a1 1 0 0 1 1 1V20"/><path d="M2.6 20h18.8"/><path d="M7 8h2.6M7 11.5h2.6M7 15h2.6M16 13h1.4"/></symbol>
  <symbol fill="none" stroke="currentColor" stroke-width="1.9" stroke-linecap="round" stroke-linejoin="round" id="nav-admin-enrolments" viewBox="0 0 24 24"><path d="M20 6.6 9.6 17 4 11.4"/></symbol>
  <symbol fill="none" stroke="currentColor" stroke-width="1.9" stroke-linecap="round" stroke-linejoin="round" id="nav-admin-credits" viewBox="0 0 24 24"><path d="M12 3.4 20.2 12 12 20.6 3.8 12z"/><path d="M8.3 12 12 8.2l3.7 3.8-3.7 3.8z"/></symbol>
  <symbol fill="none" stroke="currentColor" stroke-width="1.9" stroke-linecap="round" stroke-linejoin="round" id="nav-admin-activity" viewBox="0 0 24 24"><path d="M20.4 12a8.4 8.4 0 1 1-2.5-6"/><path d="M20.4 3.6V9h-5.4"/></symbol>
  <symbol fill="none" stroke="currentColor" stroke-width="1.9" stroke-linecap="round" stroke-linejoin="round" id="nav-admin-reports" viewBox="0 0 24 24"><path d="M3.6 20h16.8"/><rect x="5" y="11" width="3.6" height="7" rx="1"/><rect x="10.2" y="6.6" width="3.6" height="11.4" rx="1"/><rect x="15.4" y="9" width="3.6" height="9" rx="1"/></symbol>
  <symbol fill="none" stroke="currentColor" stroke-width="1.9" stroke-linecap="round" stroke-linejoin="round" id="nav-admin-themes" viewBox="0 0 24 24"><path d="M12 3.2c4.9 0 8.8 3.6 8.8 8 0 2.6-2.1 4.2-4.5 4.2h-1.6a1.7 1.7 0 0 0-1.2 2.9 1.7 1.7 0 0 1-1.2 2.9c-4.9 0-8.8-4-8.8-9s3.9-9 8.5-9z"/><circle cx="8.3" cy="10.6" r="1.1"/><circle cx="12" cy="7.6" r="1.1"/><circle cx="15.7" cy="10.6" r="1.1"/></symbol>
  <symbol fill="none" stroke="currentColor" stroke-width="1.9" stroke-linecap="round" stroke-linejoin="round" id="nav-admin-seed" viewBox="0 0 24 24"><path d="M12 20.4V11"/><path d="M12 11c0-3.4 2.6-6.2 6-6.4.2 3.5-2.4 6.2-6 6.4z"/><path d="M12 14.2c-3.2 0-5.6-2.3-5.8-5.4 3 .2 5.4 2.4 5.8 5.4z"/><path d="M8.4 20.4h7.2"/></symbol>
  <symbol fill="none" stroke="currentColor" stroke-width="1.9" stroke-linecap="round" stroke-linejoin="round" id="nav-fallback" viewBox="0 0 24 24"><circle cx="12" cy="12" r="8.2"/><circle cx="12" cy="12" r="2.4"/></symbol>
  <symbol fill="none" stroke="currentColor" stroke-width="1.9" stroke-linecap="round" stroke-linejoin="round" id="nav-admin-settings" viewBox="0 0 24 24"><path d="M4 6.6h16M4 12h16M4 17.4h16"/><circle cx="9" cy="6.6" r="1.9"/><circle cx="15.4" cy="12" r="1.9"/><circle cx="7.4" cy="17.4" r="1.9"/></symbol>

  <symbol fill="none" stroke="currentColor" stroke-width="1.9" stroke-linecap="round" stroke-linejoin="round" id="nav-account-learning" viewBox="0 0 24 24"><path d="M2.8 8.4 12 4.2l9.2 4.2L12 12.6z"/><path d="M6.6 10.6v4.9c0 1.6 2.4 2.9 5.4 2.9s5.4-1.3 5.4-2.9v-4.9"/><path d="M21.2 8.4v5.2"/></symbol>
  <symbol fill="none" stroke="currentColor" stroke-width="1.9" stroke-linecap="round" stroke-linejoin="round" id="nav-account-profile" viewBox="0 0 24 24"><circle cx="12" cy="8.4" r="3.6"/><path d="M4.8 20a7.4 7.4 0 0 1 14.4 0"/></symbol>
  <symbol fill="none" stroke="currentColor" stroke-width="1.9" stroke-linecap="round" stroke-linejoin="round" id="nav-account-sessions" viewBox="0 0 24 24"><rect x="3" y="4.6" width="18" height="12" rx="1.8"/><path d="M8.4 20h7.2M12 16.6V20"/></symbol>


  <!-- v1.1.3 standard navigation additions -->
  <symbol fill="none" stroke="currentColor" stroke-width="1.9" stroke-linecap="round" stroke-linejoin="round" id="nav-account-all" viewBox="0 0 24 24"><circle cx="12" cy="8.4" r="3.6"/><path d="M4.8 20a7.4 7.4 0 0 1 14.4 0"/></symbol>
  <symbol fill="none" stroke="currentColor" stroke-width="1.9" stroke-linecap="round" stroke-linejoin="round" id="nav-account-dashboard" viewBox="0 0 24 24"><rect x="3.5" y="4" width="17" height="16" rx="1.8"/><path d="M3.5 9.4h17M9.4 9.4V20"/></symbol>
  <symbol fill="none" stroke="currentColor" stroke-width="1.9" stroke-linecap="round" stroke-linejoin="round" id="nav-account-activity" viewBox="0 0 24 24"><path d="M20.4 12a8.4 8.4 0 1 1-2.5-6"/><path d="M20.4 3.6V9h-5.4"/></symbol>
  <symbol fill="none" stroke="currentColor" stroke-width="1.9" stroke-linecap="round" stroke-linejoin="round" id="nav-admin-all" viewBox="0 0 24 24"><rect x="3.5" y="4.5" width="7" height="7" rx="1.2"/><rect x="13.5" y="4.5" width="7" height="7" rx="1.2"/><rect x="3.5" y="14.5" width="7" height="5" rx="1.2"/><rect x="13.5" y="14.5" width="7" height="5" rx="1.2"/></symbol>
  <symbol fill="none" stroke="currentColor" stroke-width="1.9" stroke-linecap="round" stroke-linejoin="round" id="nav-admin-roles" viewBox="0 0 24 24"><path d="M7 20v-7h10v7M9 13V8.5a3 3 0 0 1 6 0V13"/><circle cx="12" cy="5" r="2"/></symbol>
  <symbol fill="none" stroke="currentColor" stroke-width="1.9" stroke-linecap="round" stroke-linejoin="round" id="nav-company-all" viewBox="0 0 24 24"><path d="M4 20V6.2a1 1 0 0 1 .7-1l7-2.1a1 1 0 0 1 1.3 1V20"/><path d="M13 9.6h6.3a1 1 0 0 1 1 1V20"/><path d="M2.6 20h18.8"/></symbol>
  <symbol fill="none" stroke="currentColor" stroke-width="1.9" stroke-linecap="round" stroke-linejoin="round" id="nav-company-dashboard" viewBox="0 0 24 24"><rect x="3.5" y="4" width="17" height="16" rx="1.8"/><path d="M3.5 9.4h17M9.4 9.4V20"/></symbol>
  <symbol fill="none" stroke="currentColor" stroke-width="1.9" stroke-linecap="round" stroke-linejoin="round" id="nav-company-people" viewBox="0 0 24 24"><circle cx="9.4" cy="8.2" r="3.2"/><path d="M3.4 19.4a6.2 6.2 0 0 1 12 0"/><path d="M16 5.4a3.2 3.2 0 0 1 0 6"/></symbol>
  <symbol fill="none" stroke="currentColor" stroke-width="1.9" stroke-linecap="round" stroke-linejoin="round" id="nav-company-requests" viewBox="0 0 24 24"><path d="M4 5h16v14H4z"/><path d="M7 9h10M7 13h7"/></symbol>
  <symbol fill="none" stroke="currentColor" stroke-width="1.9" stroke-linecap="round" stroke-linejoin="round" id="nav-company-learning" viewBox="0 0 24 24"><path d="M2.8 8.4 12 4.2l9.2 4.2L12 12.6z"/><path d="M6.6 10.6v4.9c0 1.6 2.4 2.9 5.4 2.9s5.4-1.3 5.4-2.9v-4.9"/></symbol>
  <symbol fill="none" stroke="currentColor" stroke-width="1.9" stroke-linecap="round" stroke-linejoin="round" id="nav-company-credits" viewBox="0 0 24 24"><path d="M12 3.4 20.2 12 12 20.6 3.8 12z"/><path d="M8.3 12 12 8.2l3.7 3.8-3.7 3.8z"/></symbol>
  <symbol fill="none" stroke="currentColor" stroke-width="1.9" stroke-linecap="round" stroke-linejoin="round" id="nav-company-courses" viewBox="0 0 24 24"><path d="M4 5.4A1.4 1.4 0 0 1 5.4 4H10a2.6 2.6 0 0 1 2 1v14a2.6 2.6 0 0 0-2-1H5.4A1.4 1.4 0 0 1 4 16.6z"/><path d="M20 5.4A1.4 1.4 0 0 0 18.6 4H14a2.6 2.6 0 0 0-2 1v14a2.6 2.6 0 0 1 2-1h4.6a1.4 1.4 0 0 0 1.4-1.4z"/></symbol>

  <symbol fill="none" stroke="currentColor" stroke-width="1.9" stroke-linecap="round" stroke-linejoin="round" id="gn-search" viewBox="0 0 24 24"><circle cx="10.8" cy="10.8" r="6.4"/><path d="m15.6 15.6 4 4"/></symbol>
  <symbol fill="none" stroke="currentColor" stroke-width="1.9" stroke-linecap="round" stroke-linejoin="round" id="gn-menu" viewBox="0 0 24 24"><path d="M4 7h16M4 12h16M4 17h16"/></symbol>
  <symbol fill="none" stroke="currentColor" stroke-width="1.9" stroke-linecap="round" stroke-linejoin="round" id="gn-close" viewBox="0 0 24 24"><path d="m6 6 12 12M18 6 6 18"/></symbol>
  <symbol fill="none" stroke="currentColor" stroke-width="1.9" stroke-linecap="round" stroke-linejoin="round" id="gn-chevron" viewBox="0 0 24 24"><path d="m7 10 5 5 5-5"/></symbol>

  <symbol fill="none" stroke="currentColor" stroke-width="1.9" stroke-linecap="round" stroke-linejoin="round" id="social-facebook" viewBox="0 0 24 24"><path d="M14.2 21v-8h2.7l.4-3h-3.1V8.1c0-.9.3-1.6 1.6-1.6h1.7V3.8c-.3 0-1.3-.1-2.5-.1-2.5 0-4.2 1.5-4.2 4.3v2H8v3h2.8v8"/></symbol>
  <symbol fill="none" stroke="currentColor" stroke-width="1.9" stroke-linecap="round" stroke-linejoin="round" id="social-threads" viewBox="0 0 24 24"><path d="M16.9 9.2c-.5-2.5-2.1-4-4.7-4.1-3.5-.1-5.8 2.3-5.9 6.6-.1 4.6 2 7.2 5.7 7.3 3 .1 5.2-1.6 5.2-4.1 0-2.2-1.7-3.6-4.3-3.6-2.1 0-3.6 1.1-3.6 2.8 0 1.5 1.2 2.5 2.9 2.5 2.8 0 4.8-2 4.8-5 0-3.7-2-6.6-5.5-7.5"/></symbol>
  <symbol fill="none" stroke="currentColor" stroke-width="1.9" stroke-linecap="round" stroke-linejoin="round" id="social-x" viewBox="0 0 24 24"><path d="M5 4l14 16M19 4 5 20"/></symbol>
  <symbol fill="none" stroke="currentColor" stroke-width="1.9" stroke-linecap="round" stroke-linejoin="round" id="social-instagram" viewBox="0 0 24 24"><rect x="3.5" y="3.5" width="17" height="17" rx="4.5"/><circle cx="12" cy="12" r="4"/><circle cx="17.5" cy="6.7" r=".8" fill="currentColor" stroke="none"/></symbol>
  <symbol fill="none" stroke="currentColor" stroke-width="1.9" stroke-linecap="round" stroke-linejoin="round" id="social-linkedin" viewBox="0 0 24 24"><rect x="4" y="9" width="3" height="10"/><path d="M5.5 5.2h.01"/><path d="M11 19V9h3v1.6c.9-1.2 2-1.9 3.4-1.9 2.4 0 3.6 1.6 3.6 4.6V19h-3v-5.1c0-1.5-.5-2.4-1.8-2.4-1.4 0-2.2 1-2.2 2.8V19"/></symbol>
  <symbol fill="none" stroke="currentColor" stroke-width="1.9" stroke-linecap="round" stroke-linejoin="round" id="social-youtube" viewBox="0 0 24 24"><rect x="3" y="6" width="18" height="12" rx="3.2"/><path d="m10 9.4 5 2.6-5 2.6z"/></symbol>
  <symbol fill="none" stroke="currentColor" stroke-width="1.9" stroke-linecap="round" stroke-linejoin="round" id="social-whatsapp" viewBox="0 0 24 24"><path d="M20 11.7a8 8 0 0 1-11.8 7l-4.2 1.1 1.1-4A8 8 0 1 1 20 11.7z"/><path d="M9 8.3c.3-.5.6-.5.9-.5.2 0 .5 0 .7.5l.8 1.8c.1.3.1.5-.1.8l-.6.8c-.2.2-.1.5.1.7.7 1.2 1.8 2.2 3.1 2.8.3.1.5.1.7-.1l.9-1.1c.2-.3.5-.3.8-.2l1.8.8c.3.1.5.3.5.6 0 .6-.3 1.6-1 2.1-.7.5-1.7.8-2.8.5-1.1-.3-4.2-1.5-6.1-5.1-1.6-2.9-.4-4.3.3-4.4z"/></symbol>
  <symbol fill="none" stroke="currentColor" stroke-width="1.9" stroke-linecap="round" stroke-linejoin="round" id="social-email" viewBox="0 0 24 24"><rect x="3" y="5.5" width="18" height="13" rx="1.8"/><path d="m4 7 8 5.8L20 7"/></symbol>

</svg>
